<svg width="18" height="22" viewBox="0 0 18 22" fill="none" xmlns="http://www.w3.org/2000/svg">
<path d="M5.53452 17.5703H13.1517C13.347 17.5703 13.513 17.5052 13.6497 17.375C13.7865 17.2383 13.8548 17.0755 13.8548 16.8867C13.8548 16.6849 13.7865 16.5189 13.6497 16.3887C13.513 16.252 13.347 16.1836 13.1517 16.1836H5.53452C5.32618 16.1836 5.15366 16.252 5.01694 16.3887C4.88022 16.5189 4.81186 16.6849 4.81186 16.8867C4.81186 17.0755 4.88022 17.2383 5.01694 17.375C5.15366 17.5052 5.32618 17.5703 5.53452 17.5703ZM5.53452 13.9082H13.1517C13.347 13.9082 13.513 13.8431 13.6497 13.7129C13.7865 13.5827 13.8548 13.4167 13.8548 13.2148C13.8548 13.0195 13.7865 12.8568 13.6497 12.7266C13.513 12.5898 13.347 12.5215 13.1517 12.5215H5.53452C5.32618 12.5215 5.15366 12.5898 5.01694 12.7266C4.88022 12.8568 4.81186 13.0195 4.81186 13.2148C4.81186 13.4167 4.88022 13.5827 5.01694 13.7129C5.15366 13.8431 5.32618 13.9082 5.53452 13.9082ZM4.12827 21.5352C3.07358 21.5352 2.27605 21.2617 1.73569 20.7148C1.20183 20.1745 0.934906 19.377 0.934906 18.3223V3.58594C0.934906 2.53776 1.20183 1.74023 1.73569 1.19336C2.27605 0.646484 3.07358 0.373047 4.12827 0.373047H8.58139V7.77539C8.58139 8.98633 9.1836 9.5918 10.388 9.5918H17.722V18.3223C17.722 19.377 17.4518 20.1745 16.9115 20.7148C16.3711 21.2617 15.5768 21.5352 14.5287 21.5352H4.12827ZM10.5833 8.14648C10.2057 8.14648 10.0169 7.96419 10.0169 7.59961V0.470703C10.2383 0.496745 10.4596 0.587891 10.681 0.744141C10.9089 0.900391 11.1465 1.10221 11.3939 1.34961L16.7259 6.76953C16.9798 7.02995 17.1849 7.27083 17.3412 7.49219C17.4974 7.71354 17.5886 7.93164 17.6146 8.14648H10.5833Z" fill="#F32C4D"/>
</svg>
