<svg width="30" height="13" viewBox="0 0 30 13" fill="none" xmlns="http://www.w3.org/2000/svg">
<path d="M8.11523 12.0234C5.20508 12.0234 2.8125 9.83594 2.49023 7.0332H1.29883C0.830078 7.0332 0.644531 6.75977 0.644531 6.36914V5.88086C0.644531 5.48047 0.830078 5.22656 1.29883 5.22656H2.57812C3.10547 2.67773 5.38086 0.734375 8.11523 0.734375C10.7227 0.734375 12.9199 2.52148 13.5645 4.92383C14.0234 4.74805 14.5605 4.67969 15 4.67969C15.4395 4.67969 15.9766 4.74805 16.4355 4.92383C17.0801 2.52148 19.2676 0.734375 21.8945 0.734375C24.6387 0.734375 26.9238 2.69727 27.4414 5.27539H28.7109C29.1797 5.27539 29.3555 5.5293 29.3555 5.92969V6.36914C29.3555 6.75977 29.1797 7.0332 28.7109 7.0332H27.5098C27.1875 9.83594 24.7949 12.0234 21.8945 12.0234C18.8379 12.0234 16.3672 9.60156 16.25 6.59375C15.8301 6.4375 15.3809 6.37891 15 6.37891C14.6289 6.37891 14.1699 6.4375 13.75 6.59375C13.6426 9.57227 11.1621 12.0234 8.11523 12.0234ZM8.11523 10.2852C10.2832 10.2852 12.0117 8.54688 12.0117 6.37891C12.0117 4.2207 10.2637 2.48242 8.11523 2.48242C5.95703 2.48242 4.20898 4.2207 4.20898 6.37891C4.20898 8.54688 5.95703 10.2852 8.11523 10.2852ZM21.8945 10.2852C24.043 10.2852 25.791 8.54688 25.791 6.37891C25.791 4.2207 24.043 2.48242 21.8945 2.48242C19.7168 2.48242 17.9883 4.2207 17.9883 6.37891C17.9883 8.54688 19.7168 10.2852 21.8945 10.2852Z" fill="#F32C4D"/>
</svg>
